<?xml version="1.0" encoding="iso-8859-1"?>
<!-- Generator: Adobe Illustrator 19.0.0, SVG Export Plug-In . SVG Version: 6.00 Build 0)  -->
<svg version="1.1" id="Capa_1" xmlns="http://www.w3.org/2000/svg" xmlns:xlink="http://www.w3.org/1999/xlink" x="0px" y="0px"
	 viewBox="0 0 510.9 510.9" style="enable-background:new 0 0 510.9 510.9; height: 112px; width: 112px; margin: 0 auto;" xml:space="preserve">
<path style="fill:#E1E8ED;" d="M410.648,169.6l14.2,28.4v184.9c0,0,71.1,0,71.1-14.2s19.4-234-14.2-284.4
	c-28.4-42.7-128-56.9-227.6-56.9S40.948,41.6,26.648,70c-27.1,54.3-14.2,284.5-14.2,298.7s71.1,14.2,71.1,14.2V198l14.2-28.4v327.1
	c0,0,42.7,14.2,156.4,14.2s156.4-14.2,156.4-14.2V169.6H410.648z"/>
<g>
	<path style="fill:#99AAB5;" d="M83.548,382.9h14.2V169.6c0,0-14.2,14.2-14.2,28.4V382.9z"/>
	<path style="fill:#99AAB5;" d="M410.648,169.6v213.3h14.2V198C424.948,183.8,410.648,169.6,410.648,169.6z"/>
</g>
<polygon style="fill:#66757F;" points="252.648,9.6 165.848,27.3 255.148,188.7 339.548,27.3 "/>
<path style="fill:#CCD6DD;" d="M254.248,0c-53.3,0-85.3,7.8-85.3,7.8v33.8c0,0,23.1-14.2,85.3-14.2s85.3,14.2,85.3,14.2V7.8
	C339.548,7.8,307.548,0,254.248,0z"/>
<path style="fill:#99AAB5;" d="M339.548,7.8l-85.6,158.1l-85-158.1c0,0-12.4,10.5-12.4,24.7c0,11,59.5,114.6,84.4,157.4L97.848,454
	v42.7c0,0,252.4-450.3,252.4-464.2C350.248,18.3,339.548,7.8,339.548,7.8z"/>
<path style="fill:#292F33;" d="M410.648,311.8c0,0-50.6,20.2-117.7,26.6c-8.3-3.9-27.8-12.4-38.8-12.4s-30.5,8.5-38.8,12.4
	c-67.1-6.3-117.7-26.6-117.7-26.6v42.7c0,0,37,18.5,103.5,25.7c-12.1,22.9-25.6,53.9-32.4,88.1l42.7,14.2c0,0,10.8-54.2,32.5-86.9
	c3.7,0.9,7.2,1.5,10.2,1.5s6.4-0.6,10.2-1.5c21.7,32.7,32.5,86.9,32.5,86.9l42.7-14.2c-6.9-34.3-20.3-65.2-32.4-88.1
	c66.5-7.2,103.5-25.7,103.5-25.7L410.648,311.8L410.648,311.8z"/>
<g>
</g>
<g>
</g>
<g>
</g>
<g>
</g>
<g>
</g>
<g>
</g>
<g>
</g>
<g>
</g>
<g>
</g>
<g>
</g>
<g>
</g>
<g>
</g>
<g>
</g>
<g>
</g>
<g>
</g>
</svg>
